<svg xmlns="http://www.w3.org/2000/svg" version="1.1" xmlns:xlink="http://www.w3.org/1999/xlink" xmlns:svgjs="http://svgjs.dev/svgjs" width="1440" height="560" preserveAspectRatio="none" viewBox="0 0 1440 560"><g mask="url(&quot;#SvgjsMask1074&quot;)" fill="none"><rect width="1440" height="560" x="0" y="0" fill="url(&quot;#SvgjsLinearGradient1075&quot;)"></rect><path d="M1440 0L1391.7 0L1440 237.26z" fill="rgba(255, 255, 255, .1)"></path><path d="M1391.7 0L1440 237.26L1440 266.13L1070.22 0z" fill="rgba(255, 255, 255, .075)"></path><path d="M1070.22 0L1440 266.13L1440 373.52L518.09 0z" fill="rgba(255, 255, 255, .05)"></path><path d="M518.0899999999999 0L1440 373.52L1440 447.86L363.79999999999995 0z" fill="rgba(255, 255, 255, .025)"></path><path d="M0 560L79.36 560L0 549.96z" fill="rgba(0, 0, 0, .1)"></path><path d="M0 549.96L79.36 560L209.67000000000002 560L0 465.13000000000005z" fill="rgba(0, 0, 0, .075)"></path><path d="M0 465.13L209.67000000000002 560L767.56 560L0 305.49z" fill="rgba(0, 0, 0, .05)"></path><path d="M0 305.49L767.56 560L1068.94 560L0 266.48z" fill="rgba(0, 0, 0, .025)"></path></g><defs><mask id="SvgjsMask1074"><rect width="1440" height="560" fill="#ffffff"></rect></mask><linearGradient x1="15.28%" y1="-39.29%" x2="84.72%" y2="139.29%" gradientUnits="userSpaceOnUse" id="SvgjsLinearGradient1075"><stop stop-color="#0e2a47" offset="0"></stop><stop stop-color="rgba(178, 184, 193, 1)" offset="1"></stop></linearGradient></defs></svg>